<?xml version="1.0" standalone="no"?>
<!DOCTYPE svg PUBLIC "-//W3C//DTD SVG 20010904//EN"
 "http://www.w3.org/TR/2001/REC-SVG-20010904/DTD/svg10.dtd">
<svg version="1.0" xmlns="http://www.w3.org/2000/svg"
 width="400.000000pt" height="400.000000pt" viewBox="0 0 400.000000 400.000000"
 preserveAspectRatio="xMidYMid meet">
<metadata>
Created by potrace 1.11, written by Peter Selinger 2001-2013
</metadata>
<g transform="translate(0.000000,400.000000) scale(0.100000,-0.100000)"
fill="#000000" stroke="none">
<path d="M2697 3906 c-62 -23 -97 -55 -128 -118 -11 -24 -24 -50 -28 -58 -7
-13 -61 -26 -179 -45 -20 -3 -73 -12 -117 -20 -44 -8 -93 -17 -110 -20 -16 -2
-41 -7 -55 -10 -14 -2 -36 -6 -50 -9 -14 -2 -63 -11 -110 -20 -136 -25 -159
-29 -262 -46 -32 -6 -70 -12 -85 -15 -16 -3 -43 -8 -62 -11 -18 -3 -43 -8 -55
-10 -11 -2 -34 -6 -51 -9 -16 -3 -41 -8 -55 -10 -43 -9 -59 -12 -280 -50 -151
-26 -215 -34 -218 -26 -19 58 -121 115 -203 114 -219 -2 -316 -276 -148 -417
l31 -27 -21 -107 c-21 -107 -27 -132 -36 -174 -3 -13 -9 -45 -15 -73 -5 -27
-12 -61 -15 -75 -11 -53 -35 -176 -40 -200 -2 -14 -11 -56 -19 -95 -9 -38 -18
-81 -20 -95 -3 -14 -31 -152 -62 -307 l-58 -282 -44 -11 c-61 -15 -133 -88
-151 -153 -42 -148 55 -290 207 -304 53 -5 67 -2 120 24 l60 30 609 -349 c334
-193 674 -388 756 -435 l147 -85 0 -56 c1 -135 101 -235 235 -236 161 0 274
154 226 310 -8 30 -6 34 37 73 67 58 97 85 218 197 59 54 112 104 118 109 37
33 240 218 286 261 30 28 80 73 110 100 30 27 57 51 60 54 3 4 34 33 70 65
111 101 272 249 286 263 8 8 19 10 26 5 23 -14 42 -17 109 -17 57 0 74 4 115
30 126 78 153 256 53 362 -41 44 -102 73 -158 76 l-46 2 -376 754 -375 754 30
44 c29 40 31 50 31 125 0 85 -8 107 -59 165 -51 59 -172 87 -249 58z m117 -95
c11 -1 36 -19 58 -41 33 -35 38 -47 38 -87 0 -63 -29 -107 -86 -129 -37 -14
-51 -15 -84 -5 -66 20 -113 99 -96 164 14 56 84 111 131 102 11 -2 29 -4 39
-4z m-225 -273 c26 -32 26 -39 2 -91 -11 -23 -123 -276 -251 -562 -127 -286
-243 -545 -257 -575 -14 -30 -33 -74 -43 -96 -17 -39 -21 -42 -67 -46 -26 -3
-55 -8 -63 -12 -19 -8 12 -37 -525 509 -247 252 -467 473 -487 492 -34 32 -36
37 -26 66 6 18 13 35 17 39 3 3 85 20 181 37 96 17 189 33 205 36 17 3 77 14
135 25 215 39 386 70 425 76 22 3 59 10 83 15 23 5 59 12 80 15 33 5 365 64
452 80 19 4 46 8 59 10 13 2 25 5 28 7 10 11 33 -1 52 -25z m592 -848 l376
-754 -26 -38 c-15 -21 -32 -35 -41 -33 -8 2 -49 6 -90 9 -41 4 -93 8 -115 11
-22 2 -65 7 -95 10 -64 5 -146 13 -210 20 -25 3 -70 7 -100 10 -30 3 -100 9
-155 15 -55 5 -131 12 -170 16 -38 3 -83 8 -100 10 -16 2 -61 6 -100 10 -74 7
-105 11 -117 13 -4 0 -15 18 -23 38 -9 21 -25 47 -36 59 -22 23 -22 25 29 134
16 36 63 139 102 230 40 91 85 192 100 225 15 33 96 215 180 405 84 190 159
350 167 357 8 6 22 10 31 9 12 -1 129 -227 393 -756z m-2464 730 c43 -26 64
-60 66 -107 3 -81 -42 -133 -124 -141 -37 -3 -56 0 -82 17 -43 26 -71 90 -62
138 7 37 48 91 79 103 36 15 90 11 123 -10z m483 -781 c603 -612 580 -588 580
-604 0 -9 -5 -32 -12 -53 l-12 -38 -410 -113 c-226 -63 -514 -142 -640 -177
l-229 -63 -41 36 -42 37 17 85 c9 47 33 165 53 261 127 626 208 1027 209 1040
2 12 46 35 77 39 3 1 206 -202 450 -450z m847 -580 c73 -28 106 -102 78 -176
-45 -116 -201 -116 -250 0 -20 48 -19 62 5 113 31 64 98 89 167 63z m1751
-178 c54 -29 78 -122 47 -181 -17 -33 -81 -70 -121 -70 -66 0 -124 54 -131
125 -13 113 99 183 205 126z m-1463 -56 c39 -3 90 -8 115 -10 134 -14 253 -25
313 -30 38 -4 83 -8 100 -10 17 -2 66 -7 107 -10 41 -3 86 -8 100 -10 14 -2
59 -7 100 -10 41 -4 91 -8 110 -10 19 -2 64 -6 100 -10 97 -9 118 -14 125 -33
7 -19 22 -4 -385 -377 -36 -33 -70 -64 -76 -70 -6 -5 -51 -46 -100 -90 -48
-44 -117 -107 -153 -141 -37 -33 -91 -82 -121 -110 -30 -27 -64 -58 -75 -69
-12 -11 -59 -54 -105 -95 -46 -41 -88 -80 -94 -85 -85 -82 -94 -87 -130 -75
-20 6 -35 14 -34 18 1 4 -1 34 -6 67 -4 33 -9 80 -12 105 -3 25 -7 59 -9 75
-2 17 -7 53 -10 80 -3 28 -8 64 -10 80 -3 17 -7 55 -10 85 -3 30 -7 71 -10 90
-3 19 -7 55 -10 80 -3 25 -7 61 -10 80 -2 19 -7 60 -10 90 -7 61 -13 108 -20
160 -17 131 -18 125 18 150 18 12 45 40 61 61 22 28 35 37 50 34 12 -2 53 -7
91 -10z m-508 -50 c10 -14 43 -38 73 -53 41 -22 54 -34 56 -53 1 -13 4 -49 8
-79 9 -69 13 -99 21 -175 4 -33 8 -71 10 -85 2 -14 7 -52 10 -85 3 -33 8 -71
10 -85 4 -23 13 -97 20 -160 1 -14 5 -47 9 -75 5 -47 17 -150 32 -275 3 -30 8
-58 10 -62 4 -6 -48 -48 -59 -48 -3 0 -76 41 -164 91 -87 51 -174 101 -193
112 -19 10 -267 152 -550 315 -283 163 -537 307 -563 321 -36 19 -47 31 -45
46 3 21 -9 17 673 207 121 33 306 85 410 114 105 29 195 53 202 53 6 1 20 -10
30 -24z m-1479 -199 c91 -47 94 -177 7 -233 -141 -92 -293 104 -167 214 48 42
104 48 160 19z m1873 -1086 c11 0 35 -15 54 -32 94 -89 37 -231 -92 -231 -112
0 -168 127 -97 220 24 32 75 55 102 47 8 -2 22 -4 33 -4z"/>
</g>
</svg>
